# xmcd
#
# Track frame offsets:
# 200
# 24552
# 56575
# 80650
# 112097
# 131215
# 154995
# 177702
# 196820
# 226380
# 249255
# 268480
# 285550
#
# Disc length: 4058 seconds
#
#
# Revision: 0
# Processed by: cddbd v1.5.1PL2 Copyright (c) Steve Scherf et al.
# Submitted via: FreeRIP 2.945 
#
DISCID=c30fd80d
DTITLE=Jimmy Bo Horne - Greatest Hits
DYEAR=1997
DGENRE=Funk
TTITLE0=Dance Across The Floor
TTITLE1=You Get Me Hot
TTITLE2=Is It In
TTITLE3=Spank
TTITLE4=Let Me (Let Me Be Your Lover )
TTITLE5=Let's Do It
TTITLE6=( They Long To Be ) Closer To You
TTITLE7=I Wanna Be Your Lover
TTITLE8=Without You
TTITLE9=( Sttin On ) The Dock Of The Bay
TTITLE10=Dance Across The Fllor ( Remix stefano Sechi )
TTITLE11=Is It In ( Remix P. Leandro )
TTITLE12=Spank ( Remix P. Fidelfatti )
EXTD=Produced and Distributed by Crash Records
EXTT0=
EXTT1=
EXTT2=
EXTT3=
EXTT4=
EXTT5=
EXTT6=
EXTT7=
EXTT8=
EXTT9=
EXTT10=
EXTT11=
EXTT12=
PLAYORDER=
